<svg width="1200" height="675" viewBox="0 0 1200 675" fill="none" xmlns="http://www.w3.org/2000/svg">
  <defs>
    <linearGradient id="bg" x1="120" y1="52" x2="1076" y2="626" gradientUnits="userSpaceOnUse">
      <stop stop-color="#14532D"/>
      <stop offset="1" stop-color="#164E63"/>
    </linearGradient>
  </defs>
  <rect width="1200" height="675" rx="40" fill="url(#bg)"/>
  <circle cx="1050" cy="146" r="98" fill="#86EFAC" opacity="0.15"/>
  <circle cx="178" cy="566" r="134" fill="#67E8F9" opacity="0.12"/>
  <rect x="76" y="76" width="286" height="48" rx="18" fill="#ECFCCB" opacity="0.16"/>
  <text x="100" y="107" fill="#E2E8F0" font-size="24" font-family="Segoe UI, Arial, sans-serif" letter-spacing="3">OFFLINE-FIRST HANDOFFS</text>
  <text x="76" y="242" fill="white" font-size="72" font-weight="700" font-family="Segoe UI, Arial, sans-serif">Field Sync</text>
  <text x="76" y="320" fill="white" font-size="72" font-weight="700" font-family="Segoe UI, Arial, sans-serif">Notebook</text>
  <text x="76" y="390" fill="#D1FAE5" font-size="30" font-family="Segoe UI, Arial, sans-serif">Queue updates locally, recover from bad links, and ship cleaner handoffs.</text>
  <text x="76" y="448" fill="#FDE68A" font-size="28" font-weight="600" font-family="Segoe UI, Arial, sans-serif">React / TypeScript / FastAPI / Offline Workflow</text>
  <rect x="676" y="136" width="414" height="404" rx="32" fill="#F8FAFC" opacity="0.96"/>
  <rect x="716" y="176" width="172" height="322" rx="24" fill="#DBEAFE"/>
  <rect x="910" y="176" width="140" height="142" rx="24" fill="#FEF3C7"/>
  <rect x="910" y="338" width="140" height="160" rx="24" fill="#DCFCE7"/>
  <rect x="740" y="210" width="92" height="12" rx="6" fill="#2563EB"/>
  <rect x="740" y="238" width="120" height="10" rx="5" fill="#60A5FA"/>
  <rect x="740" y="278" width="120" height="10" rx="5" fill="#60A5FA"/>
  <rect x="740" y="318" width="120" height="10" rx="5" fill="#60A5FA"/>
  <rect x="740" y="358" width="120" height="10" rx="5" fill="#60A5FA"/>
  <rect x="740" y="398" width="120" height="10" rx="5" fill="#60A5FA"/>
  <rect x="740" y="438" width="120" height="10" rx="5" fill="#60A5FA"/>
  <circle cx="1026" cy="214" r="18" fill="#F59E0B"/>
  <circle cx="1026" cy="378" r="18" fill="#22C55E"/>
  <rect x="938" y="222" width="78" height="10" rx="5" fill="#CA8A04"/>
  <rect x="938" y="386" width="78" height="10" rx="5" fill="#16A34A"/>
</svg>
