<svg xmlns="http://www.w3.org/2000/svg" viewBox="0 0 1600 900" role="img" aria-labelledby="title desc">
  <title id="title">repo-first-aid cover</title>
  <desc id="desc">Abstract project cover for repo-first-aid.</desc>
  <defs>
    <linearGradient id="bg" x1="0%" y1="0%" x2="100%" y2="100%">
      <stop offset="0%" stop-color="#f8fafc" />
      <stop offset="55%" stop-color="#dcfce7" />
      <stop offset="100%" stop-color="#bbf7d0" />
    </linearGradient>
  </defs>
  <rect width="1600" height="900" fill="url(#bg)" />
  <rect x="88" y="110" width="530" height="70" rx="20" fill="#14532d" opacity="0.08" />
  <text x="118" y="156" fill="#14532d" font-family="Trebuchet MS, Arial, sans-serif" font-size="28">Pre-publish repo audit</text>
  <text x="108" y="288" fill="#052e16" font-family="Trebuchet MS, Arial, sans-serif" font-size="92" font-weight="700">repo-</text>
  <text x="108" y="380" fill="#052e16" font-family="Trebuchet MS, Arial, sans-serif" font-size="92" font-weight="700">first-aid</text>
  <text x="112" y="470" fill="#166534" font-family="Trebuchet MS, Arial, sans-serif" font-size="34">Python / Git / GitHub</text>
  <text x="112" y="532" fill="#166534" font-family="Trebuchet MS, Arial, sans-serif" font-size="30">Checks the public repo mistakes people notice first</text>
  <rect x="904" y="116" width="560" height="668" rx="40" fill="#052e16" opacity="0.92" />
  <rect x="962" y="186" width="444" height="84" rx="18" fill="#f0fdf4" opacity="0.95" />
  <rect x="992" y="218" width="240" height="18" rx="9" fill="#052e16" opacity="0.18" />
  <rect x="962" y="316" width="444" height="94" rx="18" fill="#22c55e" opacity="0.22" />
  <rect x="992" y="350" width="180" height="18" rx="9" fill="#f8fafc" opacity="0.9" />
  <rect x="992" y="382" width="278" height="14" rx="7" fill="#f8fafc" opacity="0.35" />
  <rect x="962" y="446" width="444" height="94" rx="18" fill="#facc15" opacity="0.22" />
  <rect x="992" y="480" width="192" height="18" rx="9" fill="#f8fafc" opacity="0.9" />
  <rect x="992" y="512" width="288" height="14" rx="7" fill="#f8fafc" opacity="0.35" />
  <rect x="962" y="576" width="444" height="148" rx="18" fill="#ef4444" opacity="0.2" />
  <rect x="992" y="612" width="164" height="18" rx="9" fill="#f8fafc" opacity="0.9" />
  <rect x="992" y="644" width="300" height="14" rx="7" fill="#f8fafc" opacity="0.35" />
  <rect x="992" y="680" width="260" height="14" rx="7" fill="#f8fafc" opacity="0.35" />
</svg>
