<svg width="1200" height="675" viewBox="0 0 1200 675" fill="none" xmlns="http://www.w3.org/2000/svg">
  <defs>
    <linearGradient id="bg" x1="120" y1="60" x2="1080" y2="615" gradientUnits="userSpaceOnUse">
      <stop stop-color="#0F766E"/>
      <stop offset="1" stop-color="#1D4ED8"/>
    </linearGradient>
    <linearGradient id="panel" x1="700" y1="128" x2="1048" y2="510" gradientUnits="userSpaceOnUse">
      <stop stop-color="#F8FAFC" stop-opacity="0.98"/>
      <stop offset="1" stop-color="#DBEAFE" stop-opacity="0.92"/>
    </linearGradient>
  </defs>
  <rect width="1200" height="675" rx="40" fill="url(#bg)"/>
  <circle cx="1040" cy="148" r="108" fill="#5EEAD4" opacity="0.18"/>
  <circle cx="212" cy="548" r="132" fill="#93C5FD" opacity="0.18"/>
  <rect x="72" y="72" width="248" height="48" rx="18" fill="#E0F2FE" opacity="0.22"/>
  <text x="96" y="104" fill="#E2E8F0" font-size="24" font-family="Segoe UI, Arial, sans-serif" letter-spacing="3">REPLAY + DEBRIEF</text>
  <text x="72" y="250" fill="white" font-size="74" font-weight="700" font-family="Segoe UI, Arial, sans-serif">Telemetry</text>
  <text x="72" y="330" fill="white" font-size="74" font-weight="700" font-family="Segoe UI, Arial, sans-serif">Replay Studio</text>
  <text x="72" y="400" fill="#E2E8F0" font-size="30" font-family="Segoe UI, Arial, sans-serif">Compare runs, isolate drift, and export clean handoff summaries.</text>
  <text x="72" y="456" fill="#FDE68A" font-size="28" font-weight="600" font-family="Segoe UI, Arial, sans-serif">React / TypeScript / FastAPI / Replay UX</text>
  <rect x="690" y="130" width="360" height="396" rx="30" fill="url(#panel)"/>
  <rect x="726" y="172" width="286" height="22" rx="11" fill="#CBD5E1"/>
  <rect x="726" y="220" width="286" height="92" rx="24" fill="#BFDBFE"/>
  <rect x="746" y="242" width="118" height="12" rx="6" fill="#60A5FA"/>
  <rect x="746" y="266" width="176" height="10" rx="5" fill="#93C5FD"/>
  <rect x="746" y="290" width="128" height="10" rx="5" fill="#93C5FD"/>
  <rect x="726" y="340" width="286" height="70" rx="22" fill="#CCFBF1"/>
  <rect x="746" y="364" width="194" height="12" rx="6" fill="#2DD4BF"/>
  <rect x="726" y="438" width="286" height="48" rx="16" fill="#E2E8F0"/>
  <rect x="268" y="510" width="448" height="18" rx="9" fill="#E0F2FE" opacity="0.82"/>
  <circle cx="394" cy="519" r="12" fill="#FACC15"/>
  <circle cx="526" cy="519" r="12" fill="#22D3EE"/>
  <circle cx="624" cy="519" r="12" fill="#F97316"/>
</svg>
